<svg xmlns="http://www.w3.org/2000/svg" viewBox="0 0 121.3 41.2"><defs><style>.cls-1{fill:#2c6fb6;}.cls-2{fill:#fff;}</style></defs><g id="Capa_2" data-name="Capa 2"><g id="Layer_1" data-name="Layer 1"><path class="cls-1" d="M38.94,25.74V22.31H41.2V0H0V15.83L1.67,14l-.43,6H0V41.2H41.2V29.14c-.06,0-2.2.06-2.26.09V25.74Z"/><path class="cls-2" d="M41.22,29.14V22.31H16l-.66.93-.66-.93H7.3v7.24h7.3l.65-1,.67,1h4.59V28h-.14a4.48,4.48,0,0,0,1.64-.3v1.9h3.32v-.88l.66.88H39.64a3.12,3.12,0,0,0,1.58-.41ZM36.14,20h3.13V12.76H35.88v1l-.65-1H32.28v1.31l-.58-1.31H26.94a4.08,4.08,0,0,0-.61,0,5.6,5.6,0,0,0-.59.12,2.86,2.86,0,0,0-.41.15,4.13,4.13,0,0,0-.42.22v-.53H9.38L9,14l-.42-1.21H4.85v1.31l-.58-1.31H1.32L0,15.86V20H2.07L2.48,19h.7L3.59,20h16.2v-.88l.66.88h4.46v-.5a2.69,2.69,0,0,0,.38.19,1.9,1.9,0,0,0,.4.14,2.71,2.71,0,0,0,.55.12,4.58,4.58,0,0,0,.63.05H29.5L29.9,19h.71L31,20h4.55v-.9l.58.9Z"/><path class="cls-1" d="M12.38,24.48v-1H8.55v4.85h3.83v-1H9.66v-1h2.66v-1H9.66v-.95Zm4.1,3.87h1.4l-1.94-2.44,1.92-2.41H16.51l-1.22,1.58L14.07,23.5H12.68l1.94,2.43-1.94,2.42H14l1.22-1.6,1.22,1.6Zm1.71-4.85v4.85H19.3V26.73h1.48a1.57,1.57,0,0,0,1.7-1.61,1.54,1.54,0,0,0-1.66-1.62Zm3.18,1.62a.6.6,0,0,1-.65.63H19.3V24.48h1.42a.61.61,0,0,1,.65.64Zm2.94,1.47h.57l1.49,1.76h1.39l-1.61-1.81a1.47,1.47,0,0,0,1.31-1.49A1.51,1.51,0,0,0,25.8,23.5H23.2v4.85h1.11V26.59Zm1.39-2.11a.58.58,0,1,1,0,1.16H24.31V24.48Zm6.28,0v-1H28.15v4.85H32v-1H29.26v-1h2.66v-1H29.26v-.95Zm3.19,2.89H32.7v1h2.41a1.5,1.5,0,0,0,1.67-1.52,1.34,1.34,0,0,0-1.5-1.4h-1.1a.45.45,0,0,1-.5-.47.46.46,0,0,1,.5-.48h2.08l.43-1H34.24A1.5,1.5,0,0,0,32.57,25a1.34,1.34,0,0,0,1.5,1.41h1.1a.46.46,0,0,1,.5.49.46.46,0,0,1-.5.47Zm4.52,0H37.21v1h2.42a1.5,1.5,0,0,0,1.67-1.52,1.35,1.35,0,0,0-1.51-1.4h-1.1a.46.46,0,0,1-.5-.47.47.47,0,0,1,.5-.48h2.08l.44-1H38.75A1.5,1.5,0,0,0,37.08,25a1.35,1.35,0,0,0,1.51,1.41h1.1a.48.48,0,1,1,0,1Z"/><path class="cls-1" d="M4.43,18.8H5.66L3.59,14H2.11L0,18.8h1.2l.41-1H4l.41,1Zm-2-3.09.36-1,.38,1,.44,1.12H2l.45-1.12Zm6,3.09h1l1.4-3.93V18.8h1.1V14H10.1L9,17.23,7.83,14H6V18.8H7.08V14.87L8.47,18.8Zm8.31-3.87V14H13V18.8h3.83v-1H14.06v-1h2.65v-1H14.06v-1Zm2,2.11h.57l1.49,1.76h1.39L20.61,17a1.47,1.47,0,0,0,1.31-1.49A1.51,1.51,0,0,0,20.26,14h-2.6V18.8h1.11V17Zm1.39-2.11a.58.58,0,1,1,0,1.16H18.77V14.93Zm2.45,3.87h1.11V14H22.61V18.8Zm4.12,0h.05l.45-1h-.31a1.23,1.23,0,0,1-1.3-1.39v-.08A1.24,1.24,0,0,1,26.9,15h1.23V14H26.81a2.19,2.19,0,0,0-2.3,2.38v.1a2.15,2.15,0,0,0,2.22,2.37Zm5.13,0h1.23L31,14H29.54L27.46,18.8h1.2l.41-1h2.37l.42,1Zm-2-3.09.37-1,.38,1,.44,1.12H29.44l.44-1.12Zm4.86.13,1.9,3H38V14h-1.1v3.2l-.3-.47L34.85,14H33.41V18.8h1.11V15.49l.22.35Z"/><path class="cls-2" d="M56.23,12.71a2.79,2.79,0,0,0,2.63-1.58h0v1.39h1.78V7.46H56.8V9.11h1.76a2,2,0,0,1-2.07,1.81c-1.08,0-2.45-.7-2.45-3.53s1.53-3.31,2.35-3.31c1,0,1.64.54,2.06,2l2-.56A3.82,3.82,0,0,0,56.4,2.23c-2.83,0-4.59,2-4.59,5.2s1.36,5.28,4.42,5.28Z"/><polygon class="cls-2" points="69.2 12.52 69.2 10.72 64.75 10.72 64.75 2.42 62.53 2.42 62.53 12.52 69.2 12.52 69.2 12.52"/><path class="cls-2" d="M74,12.71c2.43,0,4.75-1.69,4.75-5.24S76.42,2.23,74,2.23s-4.76,1.7-4.76,5.24,2.32,5.24,4.76,5.24Zm0-1.79c-1.57,0-2.54-1.33-2.54-3.45s1-3.39,2.54-3.39,2.54,1.28,2.54,3.39-1,3.45-2.54,3.45Z"/><path class="cls-2" d="M84.45,12.52c1.89,0,3.67-.75,3.67-2.78a2.32,2.32,0,0,0-2.19-2.47v0a2.21,2.21,0,0,0,1.92-2.32c0-2-1.75-2.5-3.6-2.5h-4v10.1ZM82.39,4.14h1.67c1.18,0,1.66.44,1.66,1.23S85.19,6.59,84,6.59H82.39V4.14Zm0,4h1.7c1.22,0,1.86.44,1.86,1.33s-.54,1.35-1.77,1.35H82.39V8.15Z"/><path class="cls-2" d="M93.14,5.22h0l1.16,3.44H92l1.18-3.44Zm-2.51,7.3.78-2.25h3.44l.75,2.25h2.25L94.28,2.38H92.16L88.59,12.52Z"/><polygon class="cls-2" points="105.63 12.52 105.63 10.72 101.18 10.72 101.18 2.42 98.96 2.42 98.96 12.52 105.63 12.52 105.63 12.52"/><path class="cls-2" d="M57,25.65c1.88,0,3.67-.75,3.67-2.79a2.32,2.32,0,0,0-2.19-2.47v0a2.22,2.22,0,0,0,1.92-2.32c0-2.05-1.75-2.5-3.6-2.5h-4v10.1ZM55,17.27h1.67c1.18,0,1.66.44,1.66,1.23s-.53,1.21-1.69,1.21H55V17.27Zm0,4h1.69c1.23,0,1.87.44,1.87,1.32S58,24,56.76,24H55V21.28Z"/><path class="cls-2" d="M66.16,25.81c2.81,0,4.07-1.55,4.07-4V15.55H68v6.18C68,23.2,67.5,24,66.19,24s-1.89-.82-1.89-2.28V15.55H62.08v6.24c0,2.47,1.27,4,4.08,4Z"/><path class="cls-2" d="M75.57,25.84c2.81,0,4-1.45,4-3.07,0-2.09-1.88-2.65-3.66-3.13-1.32-.36-2.07-.65-2.07-1.46,0-.6.52-1,1.46-1a3,3,0,0,1,2.48,1.44l1.55-1.18a4.56,4.56,0,0,0-4-2.07c-2.16,0-3.64,1.13-3.64,3,0,2.12,1.89,2.58,3.69,3.09,1.32.37,2,.69,2,1.46s-.73,1.16-1.76,1.16A3,3,0,0,1,73,22.36l-1.67,1a4.51,4.51,0,0,0,4.29,2.49Z"/><polygon class="cls-2" points="83.4 25.65 83.4 20.6 83.4 15.55 82.3 15.55 81.19 15.55 81.19 20.6 81.19 25.65 82.1 25.65 83.4 25.65 83.4 25.65"/><polygon class="cls-2" points="87.5 25.65 87.5 19.15 87.52 19.15 91.93 25.65 93.98 25.65 93.98 15.55 91.93 15.55 91.93 21.99 91.9 21.99 87.67 15.55 85.45 15.55 85.45 25.65 87.5 25.65 87.5 25.65"/><polygon class="cls-2" points="103.14 25.65 103.14 23.85 98.25 23.85 98.25 21.34 101.62 21.34 101.62 19.58 98.25 19.58 98.25 17.41 102.9 17.41 102.9 15.55 96.02 15.55 96.02 25.65 103.14 25.65 103.14 25.65"/><path class="cls-2" d="M108.1,25.84c2.81,0,4-1.45,4-3.07,0-2.09-1.88-2.65-3.65-3.13-1.33-.36-2.08-.65-2.08-1.46,0-.6.52-1,1.46-1a3,3,0,0,1,2.49,1.44l1.54-1.18a4.55,4.55,0,0,0-4-2.07c-2.17,0-3.64,1.13-3.64,3,0,2.12,1.88,2.58,3.68,3.09,1.32.37,2,.69,2,1.46s-.73,1.16-1.76,1.16a3,3,0,0,1-2.72-1.72l-1.68,1a4.51,4.51,0,0,0,4.3,2.49Z"/><path class="cls-2" d="M117.26,25.84c2.81,0,4-1.45,4-3.07,0-2.09-1.88-2.65-3.65-3.13-1.33-.36-2.08-.65-2.08-1.46,0-.6.52-1,1.46-1a3,3,0,0,1,2.49,1.44l1.54-1.18a4.55,4.55,0,0,0-4-2.07c-2.17,0-3.65,1.13-3.65,3,0,2.12,1.89,2.58,3.69,3.09,1.32.37,2,.69,2,1.46s-.73,1.16-1.76,1.16a3,3,0,0,1-2.73-1.72l-1.67,1a4.51,4.51,0,0,0,4.29,2.49Z"/><polygon class="cls-2" points="57.81 38.77 57.81 30.53 60.83 30.53 60.83 28.68 52.58 28.68 52.58 30.53 55.59 30.53 55.59 38.77 57.81 38.77 57.81 38.77"/><path class="cls-2" d="M64.21,30.49h1.51c1.28,0,1.9.37,1.9,1.37s-.62,1.39-1.9,1.39H64.21V30.49Zm0,8.28V35h1.28l2.1,3.8h2.35l-2.25-4.09a2.7,2.7,0,0,0,2.1-2.88c0-2.24-1.49-3.12-4-3.12H62V38.77Z"/><path class="cls-2" d="M75,31.47h0l1.16,3.44H73.85L75,31.47Zm-2.51,7.3.78-2.25h3.43l.75,2.25h2.26L76.17,28.64H74.06L70.48,38.77Z"/><polygon class="cls-2" points="84.56 38.81 88.04 28.68 85.95 28.68 83.57 35.89 83.54 35.89 81.23 28.68 78.98 28.68 82.46 38.81 84.56 38.81 84.56 38.81"/><polygon class="cls-2" points="96.27 38.77 96.27 36.97 91.37 36.97 91.37 34.46 94.74 34.46 94.74 32.7 91.37 32.7 91.37 30.53 96.02 30.53 96.02 28.68 89.14 28.68 89.14 38.77 96.27 38.77 96.27 38.77"/><polygon class="cls-2" points="104.7 38.77 104.7 36.97 100.25 36.97 100.25 28.68 98.03 28.68 98.03 38.77 104.7 38.77 104.7 38.77"/></g></g></svg>