<?xml version="1.0" encoding="UTF-8"?>
<svg id="Layer_1" data-name="Layer 1" xmlns="http://www.w3.org/2000/svg" version="1.1" viewBox="0 0 124.3 44.1">
  <defs>
    <style>
      .cls-1 {
        fill: #006fcf;
      }

      .cls-1, .cls-2, .cls-3 {
        stroke-width: 0px;
      }

      .cls-2 {
        fill: #fff;
      }

      .cls-3 {
        fill: #0079c1;
      }
    </style>
  </defs>
  <g>
    <polygon class="cls-2" points="45.9 42.1 25.9 42.1 5.8 42.1 5.8 22.1 5.8 2 25.9 2 45.9 2 45.9 21.9 45.9 42.1 45.9 42.1"/>
    <path class="cls-1" d="M31.3,30.5l-1-1.2v1.2h-2.9v-1.7c-.4.1-.8.2-1.3.2h-.5v1.5h-4.2l-.7-1-.7,1h-6.9v-6.8h6.9s.7,1,.7,1l.7-1h24.4V2H5.8v15.8l1.3-3.1h2.7l.8,1.8v-1.8h3.3l.5,1.5.5-1.5h14.7v.7c.6-.5,1.3-.7,2.1-.7h4.5l.8,1.8v-1.8h2.6l.9,1.4v-1.4h3v6.8h-2.8l-.9-1.3v1.3h-4.1l-.4-1h-.9l-.4,1h-2.4c-.7,0-1.4-.1-2-.6v.6h-4l-1-1.2v1.2h-15.3l-.4-1h-.9l-.4,1h-1.9v20.6h40.1v-12.1c-.4.3-.9.4-1.5.4h-13.1Z"/>
    <path class="cls-3" d="M45.9,24.7h0s0,0,0,0h-2.4c-1,0-1.6.6-1.6,1.5s.6,1.4,1.5,1.4h1.1c.3,0,.5.2.5.4s-.2.4-.5.4h-2.4v1h2.4c.8,0,1.3-.4,1.5-1,0-.2.1-.4.1-.6s0-.4-.1-.6c-.2-.5-.7-.8-1.4-.8h-1.1c-.3,0-.5-.2-.5-.4s.2-.4.5-.4h2l.4-1h0ZM38.7,26.1c0-.3.2-.4.5-.4h2l.4-1h-2.4c-1,0-1.6.6-1.6,1.5s.6,1.4,1.5,1.4h1.1c.3,0,.5.2.5.4s-.2.4-.5.4h-2.4v1h2.4c1,0,1.6-.6,1.6-1.5s-.5-1.4-1.5-1.4h-1.1c-.3,0-.5-.2-.5-.4h0ZM33.3,29.4h3.8v-1h-2.6v-.9h2.6v-1h-2.6v-.9h2.6v-1h-3.8v4.7h0ZM33,29.4l-1.6-1.7c.8-.2,1.3-.7,1.3-1.5s-.6-1.5-1.6-1.5h-2.6v4.7h1.1v-1.7h.5l1.4,1.7h1.4ZM31,26.8h-1.3v-1h1.3c.4,0,.6.2.6.5s-.2.5-.6.5h0ZM27.9,26.3c0-.9-.6-1.6-1.6-1.6h-2.6v4.7h1.1v-1.6h1.4c1,0,1.7-.7,1.7-1.6h0ZM26.7,26.3c0,.3-.2.6-.6.6h-1.4v-1.2h1.4c.4,0,.6.3.6.6h0ZM23.4,29.4l-1.9-2.4,1.9-2.3h-1.4l-1.2,1.5-1.2-1.5h-1.4l1.9,2.4-1.9,2.4h1.4l1.2-1.5,1.2,1.5h1.4ZM14.3,29.4h3.8v-1h-2.6v-.9h2.6v-1h-2.6v-.9h2.6v-1h-3.8v4.7h0Z"/>
    <path class="cls-3" d="M42.6,20.5v-4.7h-1.1v3.1s0,0,0,0l-.3-.5-1.7-2.6h-1.4v4.7h1.1v-3.2s0,0,0,0l.3.5,1.7,2.7h1.3ZM36.6,20.5h1.3l-2-4.7h-1.5l-2,4.7h1.2l.4-1h2.2l.4,1h0ZM35.8,18.6h-1.5l.4-1.1.3-.7h0l.3.7.5,1.1h0ZM31.8,16.8h1.2v-1h-1.3c-1.5,0-2.3,1-2.3,2.3h0c0,1.5.8,2.4,2.2,2.4h0l.5-1h-.4c-.8,0-1.2-.5-1.2-1.3h0c0-.8.4-1.4,1.2-1.4h0ZM27.7,20.5h1.1v-4.7h-1.1v4.7h0ZM27.4,20.5l-1.6-1.7c.8-.2,1.3-.7,1.3-1.5s-.6-1.5-1.6-1.5h-2.6v4.7h1.1v-1.7h.5l1.4,1.7h1.4ZM25.4,17.8h-1.3v-1h1.3c.4,0,.6.2.6.5s-.2.5-.6.5h0ZM18.3,20.5h3.8v-1h-2.6v-.9h2.6v-1h-2.6v-.9h2.6v-1h-3.8v4.7h0ZM16.3,20.5h1.1v-4.7h-1.9l-.9,2.7v.5h-.2l-.2-.5-.9-2.7h-1.8v4.7h1.1v-3.8s0,0,0,0l.2.7,1.1,3.1h1l1.1-3.1.2-.7h0v.7s0,3.1,0,3.1h0ZM10.1,20.5h1.3l-2-4.7h-1.5l-2,4.7h1.2l.4-1h2.2l.4,1h0ZM9.3,18.6h-1.5l.4-1.1.3-.7h0l.3.7.5,1.1h0Z"/>
    <path class="cls-3" d="M2.2,42.1c1,0,1.8-.8,1.8-1.8s-.8-1.8-1.8-1.8-1.8.8-1.8,1.8.8,1.8,1.8,1.8h0ZM2.2,41.9c-.9,0-1.6-.7-1.6-1.6s.7-1.6,1.6-1.6,1.6.7,1.6,1.6-.7,1.6-1.6,1.6h0ZM1.5,41.3h.3v-.8h.4l.5.8h.3l-.5-.9c.3,0,.4-.2.4-.6s-.3-.6-.7-.6h-.7v2h0ZM1.8,40.2v-.7h.4c.3,0,.5,0,.5.3s-.2.3-.5.3h-.4Z"/>
  </g>
  <g>
    <path class="cls-2" d="M60.6,14.4c1.5,0,2.4-1,2.6-1.5h0v1.4h1.7v-4.9h-3.8v1.6h1.7c-.2,1.1-.9,1.8-2,1.8s-2.4-.7-2.4-3.4,1.5-3.2,2.3-3.2,1.6.5,2,1.9l2-.5c-.6-2.4-2.1-3.1-4-3.1-2.8,0-4.5,2-4.5,5.1s1.3,5.1,4.3,5.1h0Z"/>
    <polygon class="cls-2" points="73.2 14.2 73.2 12.4 68.9 12.4 68.9 4.4 66.7 4.4 66.7 14.2 73.2 14.2 73.2 14.2"/>
    <path class="cls-2" d="M77.9,14.4c2.4,0,4.6-1.6,4.6-5.1s-2.3-5.1-4.6-5.1-4.6,1.6-4.6,5.1,2.3,5.1,4.6,5.1h0ZM77.9,12.6c-1.5,0-2.5-1.3-2.5-3.4s.9-3.3,2.5-3.3,2.5,1.2,2.5,3.3-1,3.4-2.5,3.4h0Z"/>
    <path class="cls-2" d="M88.1,14.2c1.8,0,3.6-.7,3.6-2.7s-.9-2.2-2.1-2.4h0c1-.2,1.9-.9,1.9-2.3,0-2-1.7-2.4-3.5-2.4h-3.9v9.8h4.1ZM86.1,6h1.6c1.2,0,1.6.4,1.6,1.2s-.5,1.2-1.6,1.2h-1.6v-2.4h0ZM86.1,9.9h1.6c1.2,0,1.8.4,1.8,1.3s-.5,1.3-1.7,1.3h-1.7v-2.6h0Z"/>
    <path class="cls-2" d="M96.5,7.1h0l1.1,3.3h-2.3l1.2-3.3h0ZM94.1,14.2l.8-2.2h3.3l.7,2.2h2.2l-3.5-9.9h-2.1l-3.5,9.9h2Z"/>
    <polygon class="cls-2" points="108.7 14.2 108.7 12.4 104.4 12.4 104.4 4.4 102.2 4.4 102.2 14.2 108.7 14.2 108.7 14.2"/>
    <path class="cls-2" d="M61.4,27c1.8,0,3.6-.7,3.6-2.7s-.9-2.2-2.1-2.4h0c1-.2,1.9-.9,1.9-2.3,0-2-1.7-2.4-3.5-2.4h-3.9v9.8h4.1ZM59.4,18.8h1.6c1.2,0,1.6.4,1.6,1.2s-.5,1.2-1.6,1.2h-1.6v-2.4h0ZM59.4,22.7h1.6c1.2,0,1.8.4,1.8,1.3s-.5,1.3-1.7,1.3h-1.7v-2.6h0Z"/>
    <path class="cls-2" d="M70.3,27.1c2.7,0,4-1.5,4-3.9v-6.1h-2.1v6c0,1.4-.5,2.2-1.8,2.2s-1.8-.8-1.8-2.2v-6h-2.2v6.1c0,2.4,1.2,3.9,4,3.9h0Z"/>
    <path class="cls-2" d="M79.4,27.2c2.7,0,3.9-1.4,3.9-3s-1.8-2.6-3.6-3c-1.3-.4-2-.6-2-1.4s.5-1,1.4-1,1.9.6,2.4,1.4l1.5-1.1c-.7-1.1-1.9-2-3.9-2s-3.5,1.1-3.5,2.9,1.8,2.5,3.6,3c1.3.4,2,.7,2,1.4s-.7,1.1-1.7,1.1-2.1-.6-2.7-1.7l-1.6,1c.7,1.4,2.1,2.4,4.2,2.4h0Z"/>
    <polygon class="cls-2" points="87.1 27 87.1 22.1 87.1 17.1 86 17.1 84.9 17.1 84.9 22.1 84.9 27 85.8 27 87.1 27 87.1 27"/>
    <polygon class="cls-2" points="91 27 91 20.7 91.1 20.7 95.4 27 97.4 27 97.4 17.1 95.4 17.1 95.4 23.4 95.3 23.4 91.2 17.1 89.1 17.1 89.1 27 91 27 91 27"/>
    <polygon class="cls-2" points="106.3 27 106.3 25.2 101.5 25.2 101.5 22.8 104.8 22.8 104.8 21.1 101.5 21.1 101.5 19 106.1 19 106.1 17.1 99.4 17.1 99.4 27 106.3 27 106.3 27"/>
    <path class="cls-2" d="M111.1,27.2c2.7,0,3.9-1.4,3.9-3s-1.8-2.6-3.6-3c-1.3-.4-2-.6-2-1.4s.5-1,1.4-1,1.9.6,2.4,1.4l1.5-1.1c-.7-1.1-1.9-2-3.9-2s-3.5,1.1-3.5,2.9,1.8,2.5,3.6,3c1.3.4,2,.7,2,1.4s-.7,1.1-1.7,1.1-2.1-.6-2.7-1.7l-1.6,1c.7,1.4,2.1,2.4,4.2,2.4h0Z"/>
    <path class="cls-2" d="M120,27.2c2.7,0,3.9-1.4,3.9-3s-1.8-2.6-3.6-3c-1.3-.4-2-.6-2-1.4s.5-1,1.4-1,1.9.6,2.4,1.4l1.5-1.1c-.7-1.1-1.9-2-3.9-2s-3.5,1.1-3.5,2.9,1.8,2.5,3.6,3c1.3.4,2,.7,2,1.4s-.7,1.1-1.7,1.1-2.1-.6-2.7-1.7l-1.6,1c.7,1.4,2.1,2.4,4.2,2.4h0Z"/>
    <polygon class="cls-2" points="62.1 39.8 62.1 31.7 65.1 31.7 65.1 29.9 57 29.9 57 31.7 60 31.7 60 39.8 62.1 39.8 62.1 39.8"/>
    <path class="cls-2" d="M68.4,31.7h1.5c1.2,0,1.8.4,1.8,1.3s-.6,1.4-1.8,1.4h-1.5v-2.7h0ZM68.4,39.8v-3.7h1.2l2,3.7h2.3l-2.2-4c1.3-.4,2-1.2,2-2.8s-1.4-3-3.9-3h-3.7v9.8h2.1Z"/>
    <path class="cls-2" d="M78.9,32.7h0l1.1,3.3h-2.3l1.2-3.3h0ZM76.5,39.8l.8-2.2h3.3l.7,2.2h2.2l-3.5-9.9h-2.1l-3.5,9.9h2Z"/>
    <polygon class="cls-2" points="88.2 39.8 91.6 29.9 89.5 29.9 87.2 37 87.2 37 84.9 29.9 82.8 29.9 86.1 39.8 88.2 39.8 88.2 39.8"/>
    <polygon class="cls-2" points="99.6 39.8 99.6 38 94.8 38 94.8 35.6 98.1 35.6 98.1 33.9 94.8 33.9 94.8 31.7 99.4 31.7 99.4 29.9 92.7 29.9 92.7 39.8 99.6 39.8 99.6 39.8"/>
    <polygon class="cls-2" points="107.8 39.8 107.8 38 103.5 38 103.5 29.9 101.3 29.9 101.3 39.8 107.8 39.8 107.8 39.8"/>
  </g>
</svg>