<svg xmlns="http://www.w3.org/2000/svg" xmlns:xlink="http://www.w3.org/1999/xlink" viewBox="0 0 319.04 235.78"><defs><style>.cls-1{fill:url(#Degradado_sin_nombre);}.cls-2{fill:#00175a;}.cls-3{fill:#006fcf;}.cls-4{fill:#fff;}.cls-5{fill:#2c6fb6;}.cls-6{fill:#1e2256;}</style><linearGradient id="Degradado_sin_nombre" x1="-353.1" y1="637.45" x2="-352.1" y2="637.45" gradientTransform="matrix(320.04, 0, 0, -320.04, 113005.33, 204225.99)" gradientUnits="userSpaceOnUse"><stop offset="0" stop-color="#99ecff"/><stop offset="0.54" stop-color="#99ecff"/><stop offset="1" stop-color="#0070d3"/></linearGradient></defs><g id="Capa_2" data-name="Capa 2"><g id="Capa_1-2" data-name="Capa 1"><path class="cls-1" d="M302.36,234.28v1.5H16.68A16.68,16.68,0,0,1,0,219.1v-2.84a16.69,16.69,0,0,1,16.68-16.69H302.36A16.7,16.7,0,0,1,319,216.26v2.84a16.68,16.68,0,0,1-16.68,16.68v-3A13.7,13.7,0,0,0,316,219.1v-2.84a13.71,13.71,0,0,0-13.68-13.69H16.68A13.71,13.71,0,0,0,3,216.26v2.84a13.69,13.69,0,0,0,13.68,13.68H302.36Z"/><rect class="cls-2" x="18.47" y="209.95" width="2.35" height="13.79"/><path class="cls-2" d="M23.81,213.85H26.1v1.36a4.52,4.52,0,0,1,3.39-1.55,2.49,2.49,0,0,1,2.71,1.62,4.66,4.66,0,0,1,3.46-1.62,2.65,2.65,0,0,1,2.89,3v7.1H36.26v-6.52c0-1.1-.32-1.6-1.4-1.6a3.87,3.87,0,0,0-2.53,1.28v6.84H30v-6.52c0-1.1-.31-1.6-1.39-1.6a3.93,3.93,0,0,0-2.54,1.28v6.84H23.81Z"/><path class="cls-2" d="M41,213.85h2.29v1.3a4,4,0,0,1,3.15-1.49c2.25,0,3.91,1.7,3.91,5.12s-1.7,5.11-4.23,5.11a3.76,3.76,0,0,1-2.83-1.25v4.82H41Zm7.06,5c0-2.08-.9-3.18-2.37-3.18a3.32,3.32,0,0,0-2.4,1.24v4a3,3,0,0,0,2.33,1.23c1.73,0,2.44-1.06,2.44-3.26"/><path class="cls-2" d="M52.3,220.94v-7.09h2.31v6.55c0,1.1.46,1.61,1.47,1.61a4,4,0,0,0,2.68-1.29v-6.87h2.31v9.89H58.76V222.4a4.89,4.89,0,0,1-3.61,1.53,2.67,2.67,0,0,1-2.85-3"/><rect class="cls-2" x="63.74" y="209.95" width="2.31" height="13.79"/><path class="cls-2" d="M68,222.38l1.24-1.4a4.91,4.91,0,0,0,3.11,1.17c1.23,0,2-.31,2-1.13s-1-1-2.2-1.32c-1.69-.4-3.73-.84-3.73-3.13,0-1.74,1.5-2.91,3.67-2.91a5.81,5.81,0,0,1,4.07,1.4L75,216.55a5,5,0,0,0-2.8-1.08c-1.26,0-1.67.44-1.67,1,0,.8,1,1.05,2.16,1.31,1.69.37,3.76.8,3.76,3.11,0,2.08-1.88,3.05-4.14,3.05A6.25,6.25,0,0,1,68,222.38"/><path class="cls-2" d="M77.63,221.35c0-2.14,1.83-3.57,6.45-4.1V217c0-1-.52-1.42-1.62-1.42a5.39,5.39,0,0,0-3.34,1.34L78,215.45a7.08,7.08,0,0,1,4.77-1.79c2.64,0,3.55,1.27,3.55,3.58v4.08a6.88,6.88,0,0,0,.28,2.42H84.3a3.61,3.61,0,0,1-.22-1.27,4.75,4.75,0,0,1-3.65,1.42,2.51,2.51,0,0,1-2.8-2.54m6.45-.37V218.8c-2.74.37-4.19,1-4.19,2.12,0,.79.54,1.2,1.38,1.2A4,4,0,0,0,84.08,221"/><path class="cls-2" d="M88.79,213.85H91.1v1.34a4.93,4.93,0,0,1,3.62-1.53,2.66,2.66,0,0,1,2.85,3v7.1H95.26v-6.52c0-1.1-.47-1.6-1.47-1.6a4,4,0,0,0-2.69,1.28v6.84H88.79Z"/><path class="cls-2" d="M99.49,218.82c0-3.43,1.69-5.16,4.23-5.16a3.78,3.78,0,0,1,2.83,1.25v-5h2.29v11.37a6.14,6.14,0,0,0,.3,2.42h-2.37a3.74,3.74,0,0,1-.22-1.34,4,4,0,0,1-3.15,1.49c-2.25,0-3.91-1.64-3.91-5.07m7.06,1.94v-4a3,3,0,0,0-2.33-1.23c-1.73,0-2.44,1.12-2.44,3.32s.89,3.13,2.36,3.13a3.33,3.33,0,0,0,2.41-1.25"/><path class="cls-2" d="M110.85,218.8c0-3.65,2.4-5.14,4.83-5.14s4.82,1.49,4.82,5.14-2.42,5.14-4.82,5.14-4.83-1.52-4.83-5.14m7.34,0c0-1.84-.78-3.18-2.51-3.18s-2.52,1.19-2.52,3.18.77,3.22,2.52,3.22,2.51-1.19,2.51-3.22"/><path class="cls-2" d="M126.63,218.8c0-3.78,2.55-5.14,4.75-5.14a4,4,0,0,1,4.1,2.89l-1.94.69a2.16,2.16,0,0,0-2.2-1.66c-1.3,0-2.4.86-2.4,3.22,0,2.11.86,3.26,2.37,3.26a2.19,2.19,0,0,0,2.31-1.71l1.9.69a4.35,4.35,0,0,1-4.27,2.9c-2.29,0-4.62-1.52-4.62-5.14"/><path class="cls-2" d="M136.65,218.8c0-3.65,2.41-5.14,4.83-5.14s4.82,1.49,4.82,5.14-2.42,5.14-4.82,5.14-4.83-1.52-4.83-5.14m7.34,0c0-1.84-.78-3.18-2.51-3.18S139,216.81,139,218.8s.77,3.22,2.52,3.22,2.51-1.19,2.51-3.22"/><path class="cls-2" d="M148.32,213.85h2.31v1.34a4.89,4.89,0,0,1,3.61-1.53,2.66,2.66,0,0,1,2.85,3v7.1h-2.31v-6.52c0-1.1-.46-1.6-1.47-1.6a4,4,0,0,0-2.68,1.28v6.84h-2.31Z"/><path class="cls-2" d="M159,218.8c0-3.76,2.67-5.14,4.71-5.14,2.22,0,4.35,1.32,4.35,5.35v.54h-6.77a2.45,2.45,0,0,0,2.65,2.57A3.56,3.56,0,0,0,166.7,221l1.22,1.2a5.37,5.37,0,0,1-4.16,1.78c-2.48,0-4.77-1.51-4.77-5.14m6.95-1c-.13-1.51-.87-2.31-2.25-2.31a2.32,2.32,0,0,0-2.37,2.31Z"/><polygon class="cls-2" points="172.11 218.63 168.9 213.85 171.34 213.85 173.41 217.01 175.41 213.85 177.77 213.85 174.53 218.63 177.96 223.74 175.52 223.74 173.24 220.27 171.01 223.74 168.66 223.74 172.11 218.63"/><path class="cls-2" d="M179.6,210.14h2.34v2H179.6Zm0,3.71h2.31v9.89h-2.31Z"/><path class="cls-2" d="M184,218.8c0-3.65,2.4-5.14,4.83-5.14s4.82,1.49,4.82,5.14-2.42,5.14-4.82,5.14S184,222.42,184,218.8m7.34,0c0-1.84-.78-3.18-2.51-3.18s-2.52,1.19-2.52,3.18.76,3.22,2.52,3.22,2.51-1.19,2.51-3.22"/><path class="cls-2" d="M195.69,213.85H198v1.34a4.93,4.93,0,0,1,3.62-1.53,2.66,2.66,0,0,1,2.85,3v7.1h-2.31v-6.52c0-1.1-.47-1.6-1.47-1.6A4,4,0,0,0,198,216.9v6.84h-2.31Z"/><path class="cls-2" d="M206.37,218.8c0-3.76,2.66-5.14,4.71-5.14,2.22,0,4.34,1.32,4.34,5.35v.54h-6.76a2.44,2.44,0,0,0,2.64,2.57,3.57,3.57,0,0,0,2.78-1.16l1.21,1.2a5.34,5.34,0,0,1-4.15,1.78c-2.48,0-4.77-1.51-4.77-5.14m6.95-1c-.13-1.51-.88-2.31-2.26-2.31a2.32,2.32,0,0,0-2.36,2.31Z"/><path class="cls-2" d="M216.5,222.38l1.25-1.4a4.89,4.89,0,0,0,3.11,1.17c1.23,0,2-.31,2-1.13s-1-1-2.2-1.32c-1.7-.4-3.73-.84-3.73-3.13,0-1.74,1.49-2.91,3.67-2.91a5.78,5.78,0,0,1,4.06,1.4l-1.1,1.49a4.92,4.92,0,0,0-2.79-1.08c-1.27,0-1.68.44-1.68,1,0,.8,1,1.05,2.16,1.31,1.7.37,3.77.8,3.77,3.11,0,2.08-1.88,3.05-4.14,3.05a6.3,6.3,0,0,1-4.36-1.56"/><path class="cls-2" d="M231.13,218.82c0-3.43,1.69-5.16,4.23-5.16a3.78,3.78,0,0,1,2.83,1.25v-5h2.29v11.37a6.14,6.14,0,0,0,.3,2.42h-2.37a3.74,3.74,0,0,1-.22-1.34,4,4,0,0,1-3.15,1.49c-2.26,0-3.91-1.64-3.91-5.07m7.06,1.94v-4a3,3,0,0,0-2.33-1.23c-1.73,0-2.44,1.12-2.44,3.32s.89,3.13,2.36,3.13a3.35,3.35,0,0,0,2.41-1.25"/><path class="cls-2" d="M242.49,218.8c0-3.76,2.67-5.14,4.71-5.14,2.22,0,4.35,1.32,4.35,5.35v.54h-6.77a2.45,2.45,0,0,0,2.65,2.57A3.56,3.56,0,0,0,250.2,221l1.21,1.2a5.34,5.34,0,0,1-4.15,1.78c-2.48,0-4.77-1.51-4.77-5.14m6.95-1c-.13-1.51-.88-2.31-2.25-2.31a2.32,2.32,0,0,0-2.37,2.31Z"/><polygon class="cls-2" points="257.12 213.85 259.52 213.85 261.94 221.15 261.98 221.15 264.38 213.85 266.6 213.85 263.02 223.76 260.69 223.76 257.12 213.85"/><path class="cls-2" d="M267.14,221.35c0-2.14,1.82-3.57,6.44-4.1V217c0-1-.52-1.42-1.62-1.42a5.38,5.38,0,0,0-3.33,1.34l-1.12-1.43a7.08,7.08,0,0,1,4.77-1.79c2.65,0,3.56,1.27,3.56,3.58v4.08a6.64,6.64,0,0,0,.28,2.42h-2.31a3.6,3.6,0,0,1-.23-1.27,4.72,4.72,0,0,1-3.65,1.42,2.5,2.5,0,0,1-2.79-2.54m6.44-.37V218.8c-2.73.37-4.19,1-4.19,2.12,0,.79.54,1.2,1.38,1.2a3.94,3.94,0,0,0,2.81-1.14"/><rect class="cls-2" x="278.39" y="209.95" width="2.31" height="13.79"/><path class="cls-2" d="M282.81,218.8c0-3.65,2.4-5.14,4.82-5.14s4.83,1.49,4.83,5.14-2.42,5.14-4.83,5.14-4.82-1.52-4.82-5.14m7.34,0c0-1.84-.79-3.18-2.52-3.18s-2.51,1.19-2.51,3.18.76,3.22,2.51,3.22,2.52-1.19,2.52-3.22"/><path class="cls-2" d="M294.47,213.85h2.29v1.62h0a3.86,3.86,0,0,1,3.56-1.81h.14l-.07,2.11a5.86,5.86,0,0,0-.61,0,3.35,3.35,0,0,0-3.06,1.75v6.26h-2.29Z"/><path class="cls-3" d="M272.12,178.18a12.48,12.48,0,0,1-2.78-.32l-68.47-16.15a12.19,12.19,0,0,1-9.06-14.65l32-135.54a12.2,12.2,0,0,1,14.65-9.06l68.47,16.15A12.21,12.21,0,0,1,316,33.26L284,168.8a12.29,12.29,0,0,1-11.87,9.38"/><path class="cls-4" d="M235.64,4.27h0a9.82,9.82,0,0,1,2.29.27L306.4,20.69a10.08,10.08,0,0,1,7.48,12.08l-32,135.54a10.16,10.16,0,0,1-9.8,7.74,10,10,0,0,1-2.29-.27l-68.47-16.15a10.09,10.09,0,0,1-7.47-12.08L225.85,12a10.15,10.15,0,0,1,9.79-7.74m0-4.27a14.38,14.38,0,0,0-13.95,11l-32,135.54a14.36,14.36,0,0,0,10.65,17.22l68.47,16.15a14.16,14.16,0,0,0,3.27.38,14.37,14.37,0,0,0,13.95-11L318,33.75a14.35,14.35,0,0,0-10.65-17.22L238.91.38A14.1,14.1,0,0,0,235.64,0"/><line class="cls-5" x1="286.63" y1="106.95" x2="276.87" y2="148.33"/><path class="cls-4" d="M276.87,150.22a1.58,1.58,0,0,1-.43-.05A1.89,1.89,0,0,1,275,147.9l9.76-41.38a1.89,1.89,0,0,1,3.68.86l-9.76,41.39a1.88,1.88,0,0,1-1.84,1.45"/><line class="cls-5" x1="275.14" y1="104.42" x2="265.38" y2="145.8"/><path class="cls-4" d="M265.39,147.69a2.2,2.2,0,0,1-.44-.05,1.9,1.9,0,0,1-1.41-2.27L273.3,104a1.89,1.89,0,0,1,3.68.87l-9.76,41.38a1.89,1.89,0,0,1-1.83,1.46"/><line class="cls-5" x1="263.42" y1="101.48" x2="253.66" y2="142.86"/><path class="cls-4" d="M253.66,144.75a2.1,2.1,0,0,1-.43-.05,1.89,1.89,0,0,1-1.41-2.27L261.58,101a1.89,1.89,0,0,1,3.68.87l-9.76,41.38a1.89,1.89,0,0,1-1.84,1.46"/><line class="cls-5" x1="252.67" y1="98.94" x2="242.91" y2="140.32"/><path class="cls-4" d="M242.91,142.21a1.58,1.58,0,0,1-.43-.05,1.88,1.88,0,0,1-1.41-2.27l9.76-41.38a1.89,1.89,0,1,1,3.68.87l-9.76,41.38a1.88,1.88,0,0,1-1.84,1.45"/><line class="cls-5" x1="240.38" y1="96.05" x2="230.62" y2="137.43"/><path class="cls-4" d="M230.63,139.32a2.2,2.2,0,0,1-.44,0,1.9,1.9,0,0,1-1.4-2.28l9.75-41.38a1.89,1.89,0,0,1,3.68.87l-9.76,41.38a1.89,1.89,0,0,1-1.83,1.46"/><line class="cls-5" x1="229.63" y1="93.51" x2="219.87" y2="134.89"/><path class="cls-4" d="M219.88,136.78a1.65,1.65,0,0,1-.44-.05,1.9,1.9,0,0,1-1.41-2.27l9.76-41.38a1.89,1.89,0,1,1,3.68.86l-9.76,41.39a1.88,1.88,0,0,1-1.83,1.45"/><line class="cls-5" x1="218.03" y1="90.77" x2="208.27" y2="132.16"/><path class="cls-4" d="M208.27,134.05a2.1,2.1,0,0,1-.43-.05,1.89,1.89,0,0,1-1.41-2.28l9.76-41.38a1.89,1.89,0,0,1,3.68.87l-9.76,41.38a1.9,1.9,0,0,1-1.84,1.46"/><rect class="cls-5" x="224.83" y="67.38" width="2.43" height="2.38" transform="translate(107.45 272.86) rotate(-76.74)"/><rect class="cls-4" x="222.94" y="65.49" width="6.21" height="6.16" transform="translate(107.42 272.85) rotate(-76.73)"/><rect class="cls-5" x="235.5" y="69.9" width="2.43" height="2.38" transform="translate(113.22 285.19) rotate(-76.74)"/><rect class="cls-4" x="233.62" y="68.01" width="6.21" height="6.16" transform="translate(113.19 285.17) rotate(-76.73)"/><rect class="cls-5" x="246.12" y="72.4" width="2.43" height="2.38" transform="translate(118.97 297.45) rotate(-76.74)"/><rect class="cls-4" x="244.23" y="70.51" width="6.21" height="6.16" transform="translate(118.92 297.43) rotate(-76.73)"/><rect class="cls-5" x="256.79" y="74.92" width="2.43" height="2.38" transform="translate(124.74 309.78) rotate(-76.74)"/><rect class="cls-4" x="254.9" y="73.03" width="6.21" height="6.16" transform="translate(124.74 309.78) rotate(-76.74)"/><rect class="cls-5" x="268.05" y="77.57" width="2.43" height="2.38" transform="translate(130.83 322.78) rotate(-76.74)"/><rect class="cls-4" x="266.16" y="75.68" width="6.21" height="6.16" transform="translate(130.78 322.75) rotate(-76.73)"/><rect class="cls-5" x="278" y="79.92" width="2.43" height="2.38" transform="translate(136.22 334.28) rotate(-76.74)"/><rect class="cls-4" x="276.11" y="78.03" width="6.21" height="6.16" transform="translate(136.17 334.25) rotate(-76.73)"/><rect class="cls-5" x="288.62" y="82.42" width="2.43" height="2.38" transform="translate(141.96 346.54) rotate(-76.74)"/><rect class="cls-4" x="286.73" y="80.53" width="6.21" height="6.16" transform="translate(141.92 346.51) rotate(-76.73)"/><rect class="cls-5" x="298.57" y="84.77" width="2.43" height="2.38" transform="translate(147.35 358.04) rotate(-76.74)"/><rect class="cls-4" x="296.68" y="82.88" width="6.21" height="6.16" transform="translate(147.35 358.04) rotate(-76.74)"/><rect class="cls-5" x="213.19" y="64.62" width="2.43" height="2.38" transform="translate(101.17 259.41) rotate(-76.74)"/><rect class="cls-4" x="211.3" y="62.73" width="6.21" height="6.16" transform="translate(101.13 259.38) rotate(-76.73)"/><rect class="cls-3" x="8.15" y="84.4" width="231.99" height="94.81" rx="11.22"/><path class="cls-4" d="M228.91,86.53A9.1,9.1,0,0,1,238,95.62V168a9.1,9.1,0,0,1-9.09,9.09H19.37A9.1,9.1,0,0,1,10.28,168V95.62a9.1,9.1,0,0,1,9.09-9.09Zm0-4.27H19.37A13.4,13.4,0,0,0,6,95.62V168a13.4,13.4,0,0,0,13.36,13.36H228.91A13.4,13.4,0,0,0,242.27,168V95.62a13.4,13.4,0,0,0-13.36-13.36"/><path class="cls-4" d="M25,148.34c0-5,1.21-9.81,10.27-15.61,5.34-3.4,7.43-4.7,7.43-8.18,0-2.56-1.62-4.18-4.5-4.18-2.7,0-5.53,1.76-7.53,4.92l-5.35-3.76c3-4.56,7-7.48,13.11-7.48,7.39,0,11.61,3.9,11.61,10,0,3.81-1,7.2-7.62,11.38-5,3.16-8.27,5.72-8.45,7.76H50.25v5.9H25Z"/><path class="cls-4" d="M53.69,131.89c0-10.73,5.29-17.84,14.31-17.84s14.26,7.11,14.26,17.84S77.06,149.73,68,149.73s-14.31-7.11-14.31-17.84m21.09,0c0-7.85-2.46-11.8-6.78-11.8s-6.79,4-6.79,11.8,2.47,11.94,6.79,11.94,6.78-4.09,6.78-11.94"/><path class="cls-4" d="M84.91,148.34c0-5,1.21-9.81,10.27-15.61,5.35-3.4,7.44-4.7,7.44-8.18,0-2.56-1.63-4.18-4.51-4.18-2.7,0-5.53,1.76-7.53,4.92l-5.34-3.76c3-4.56,7-7.48,13.1-7.48,7.39,0,11.62,3.9,11.62,10,0,3.81-1,7.2-7.62,11.38-5,3.16-8.27,5.72-8.46,7.76h16.31v5.9H84.91Z"/><path class="cls-4" d="M129,142.35H112.33v-5.49L128,114.7h8.32v21.7h5.8v5.95h-5.8v6.73H129Zm0-5.95V123.71h-.09l-8.78,12.69Z"/><polygon class="cls-6" points="11.67 19.29 16.07 19.29 16.07 35.69 24.86 35.69 24.86 39.25 11.67 39.25 11.67 19.29"/><path class="cls-6" d="M33,19.21h4.18l7.07,20H39.76L38.27,34.8H31.48l-1.54,4.45H25.89Zm4.29,12.41L35,24.82H34.9l-2.35,6.8Z"/><path class="cls-6" d="M44.7,29.24c0-6.93,4-10.33,9.06-10.33s7.23,2.7,8.09,6.29L57.7,26.41c-.65-2.29-1.62-3.86-4-3.86-3,0-4.64,2.56-4.64,6.69s1.68,6.86,4.7,6.86c2.35,0,3.51-1.49,4.21-4.21l4.12.91c-1,4-3.34,6.83-8.36,6.83-5.21,0-9.06-3.35-9.06-10.39"/><path class="cls-6" d="M72.57,19.29h8c3.67,0,7.13.89,7.13,4.94a4.37,4.37,0,0,1-3.81,4.58v.06c2.43.43,4.35,1.69,4.35,4.88,0,4-3.54,5.5-7.26,5.5H72.57Zm7.55,8.23c2.29,0,3.35-.87,3.35-2.4s-1-2.43-3.29-2.43h-3.3v4.83Zm.3,8.39c2.43,0,3.51-1,3.51-2.67s-1.27-2.62-3.7-2.62H76.88v5.29Z"/><path class="cls-6" d="M91.21,31.62V19.29h4.4V31.51c0,2.89,1.11,4.5,3.72,4.5s3.67-1.59,3.67-4.5V19.29h4.32v12.3c0,4.91-2.48,8-8,8s-8.07-3.08-8.07-8"/><path class="cls-6" d="M109.69,34.72l3.32-2a5.93,5.93,0,0,0,5.4,3.4c2,0,3.48-.76,3.48-2.29s-1.43-2.16-4-2.89c-3.56-1-7.28-1.92-7.28-6.1,0-3.72,2.91-6,7.2-6a9,9,0,0,1,7.93,4.1l-3,2.32a5.93,5.93,0,0,0-4.91-2.83c-1.86,0-2.88.81-2.88,2,0,1.6,1.48,2.16,4.1,2.89,3.51.95,7.23,2.05,7.23,6.18,0,3.21-2.43,6.07-8,6.07a9,9,0,0,1-8.5-4.91"/><rect class="cls-6" x="129.66" y="19.29" width="4.37" height="19.96"/><polygon class="cls-6" points="138.35 19.29 142.75 19.29 151.11 32.02 151.16 32.02 151.16 19.29 155.21 19.29 155.21 39.25 151.16 39.25 142.45 26.41 142.39 26.41 142.39 39.25 138.35 39.25 138.35 19.29"/><polygon class="cls-6" points="159.31 19.29 172.91 19.29 172.91 22.96 163.71 22.96 163.71 27.25 170.37 27.25 170.37 30.73 163.71 30.73 163.71 35.69 173.39 35.69 173.39 39.25 159.31 39.25 159.31 19.29"/><path class="cls-6" d="M175,34.72l3.32-2a5.91,5.91,0,0,0,5.39,3.4c2,0,3.48-.76,3.48-2.29s-1.43-2.16-4-2.89c-3.57-1-7.29-1.92-7.29-6.1,0-3.72,2.92-6,7.21-6A9,9,0,0,1,191,23l-3.05,2.32A5.94,5.94,0,0,0,183,22.5c-1.86,0-2.89.81-2.89,2,0,1.6,1.48,2.16,4.1,2.89,3.51.95,7.23,2.05,7.23,6.18,0,3.21-2.43,6.07-8,6.07a8.93,8.93,0,0,1-8.5-4.91"/><path class="cls-6" d="M193.39,34.72l3.32-2a5.91,5.91,0,0,0,5.39,3.4c2,0,3.48-.76,3.48-2.29s-1.43-2.16-4-2.89c-3.56-1-7.29-1.92-7.29-6.1,0-3.72,2.92-6,7.21-6a9,9,0,0,1,7.93,4.1l-3,2.32a5.94,5.94,0,0,0-4.91-2.83c-1.86,0-2.89.81-2.89,2,0,1.6,1.49,2.16,4.1,2.89,3.51.95,7.23,2.05,7.23,6.18,0,3.21-2.42,6.07-8,6.07a8.93,8.93,0,0,1-8.5-4.91"/><polygon class="cls-6" points="15.42 53.55 10.15 53.55 10.15 50.29 24.63 50.29 24.63 53.55 19.33 53.55 19.33 68.03 15.42 68.03 15.42 53.55"/><path class="cls-6" d="M27,50.29h6.67c4.37,0,7,1.55,7,5.49a4.75,4.75,0,0,1-3.69,5.06l4,7.19H36.77l-3.7-6.69H30.82V68H27Zm6.5,8c2.26,0,3.34-.65,3.34-2.45s-1.08-2.39-3.34-2.39H30.82v4.84Z"/><path class="cls-6" d="M48.52,50.21h3.72L58.52,68h-4l-1.32-4h-6l-1.37,4H42.24Zm3.81,11-2-6h0l-2.09,6Z"/><polygon class="cls-6" points="57.9 50.28 61.86 50.28 65.91 62.97 65.96 62.97 70.15 50.28 73.82 50.28 67.71 68.1 64.01 68.1 57.9 50.28"/><polygon class="cls-6" points="76.05 50.28 88.14 50.28 88.14 53.55 79.96 53.55 79.96 57.36 85.89 57.36 85.89 60.45 79.96 60.45 79.96 64.87 88.57 64.87 88.57 68.03 76.05 68.03 76.05 50.28"/><polygon class="cls-6" points="91.24 50.28 95.14 50.28 95.14 64.87 102.96 64.87 102.96 68.03 91.24 68.03 91.24 50.28"/><path class="cls-6" d="M109.82,64l3-1.75a5.26,5.26,0,0,0,4.8,3c1.8,0,3.09-.67,3.09-2s-1.27-1.92-3.59-2.57c-3.17-.89-6.48-1.7-6.48-5.42,0-3.31,2.59-5.3,6.4-5.3A8,8,0,0,1,124,53.6l-2.71,2.06A5.27,5.27,0,0,0,117,53.14c-1.65,0-2.57.72-2.57,1.77,0,1.42,1.32,1.92,3.65,2.57,3.12.84,6.43,1.82,6.43,5.49,0,2.86-2.16,5.4-7.1,5.4A7.94,7.94,0,0,1,109.82,64"/><path class="cls-6" d="M126.8,61.25v-11h3.91V61.15c0,2.57,1,4,3.31,4s3.26-1.41,3.26-4V50.29h3.84V61.22c0,4.37-2.21,7.1-7.15,7.1s-7.17-2.73-7.17-7.07"/><path class="cls-6" d="M144.48,50.29h5.15l4,13h0l3.69-13h5.28V68h-3.77V55.92h0a31.79,31.79,0,0,1-1,4L155.15,68H151.7l-2.64-8.15a30.43,30.43,0,0,1-1-4.15H148V68h-3.5Z"/><path class="cls-6" d="M166.26,50.29h5.15l4,13h0l3.69-13h5.28V68h-3.77V55.92h-.05a31.84,31.84,0,0,1-1,4L176.93,68h-3.46l-2.63-8.15a30.43,30.43,0,0,1-1-4.15h-.05V68h-3.5Z"/><rect class="cls-6" x="188.22" y="50.29" width="3.89" height="17.75"/><polygon class="cls-6" points="199.93 53.55 194.65 53.55 194.65 50.29 209.14 50.29 209.14 53.55 203.84 53.55 203.84 68.03 199.93 68.03 199.93 53.55"/><path class="cls-4" d="M276.13,64.14a3.11,3.11,0,0,1-.64-.23l-.07,0c-.27-.17-.85-.8-.37-2.84l3.08-13-7.26-1.71-2.52,1.46c-.87.58-2,1.23-2.73,1.07a1.25,1.25,0,0,1-.83-.57c-.36-.58-.43-1.64.38-4.92,1-4.08,1.93-8.19,1.94-8.23l1.26.29s-.93,4.16-1.94,8.25c-.76,3.08-.61,3.77-.55,3.91h0a6.25,6.25,0,0,0,1.75-.89l0,0,3-1.73,9,2.13-3.37,14.3a3,3,0,0,0-.11,1.48.92.92,0,0,0,1.14-.18l0,0L289.2,49.26l10.64,2.45a1.83,1.83,0,0,0,2.2-1.38,1.8,1.8,0,0,0-.24-1.39,1.89,1.89,0,0,0-1.14-.81l-4.06-.93L290,45.61,285.36,28.3c0-.06-.13-.47-.93-.51-.09.06-.36.34-.58,1.27l-3.37,14.3-9-2.13-1.89-2.88,1.08-.71,1.61,2.45,7.27,1.71,3.07-13c.51-2.17,1.5-2.29,1.79-2.27a2.11,2.11,0,0,1,2.26,1.61l4.41,16.43,5.85,1.41,4.05.92a3.14,3.14,0,1,1-1.4,6.12l-9.89-2.28L278.37,63.45a2.22,2.22,0,0,1-2.24.69m8.24-36.35h0"/><path class="cls-4" d="M280.69,26.87l-8.2-1.93a.64.64,0,0,1-.48-.78.65.65,0,0,1,.78-.49L281,25.61a.65.65,0,1,1-.29,1.26"/><path class="cls-4" d="M279.94,30l-5.67-1.34a.65.65,0,0,1-.48-.78.65.65,0,0,1,.78-.48l5.67,1.34a.65.65,0,0,1-.3,1.26"/><path class="cls-4" d="M272.12,63.22l-8.2-1.94a.64.64,0,0,1-.48-.78.65.65,0,0,1,.78-.48L272.41,62a.65.65,0,0,1-.29,1.27"/><path class="cls-4" d="M272.86,60.06l-5.67-1.34a.65.65,0,0,1-.48-.78.64.64,0,0,1,.78-.48l5.67,1.33a.65.65,0,0,1-.3,1.27"/><path class="cls-4" d="M195.88,165a31.89,31.89,0,0,1-14.18-60.45,1.1,1.1,0,0,1,1,2,29.61,29.61,0,1,0,4.11-1.67,1.1,1.1,0,0,1-.68-2.09A31.89,31.89,0,1,1,195.88,165"/><path class="cls-4" d="M195.78,165l-1.15-1.87c8-4.91,13.22-16.67,13.22-30,0-13-5.06-24.71-12.89-29.74l1.19-1.85c8.44,5.42,13.9,17.82,13.9,31.59,0,14-5.6,26.53-14.27,31.83"/><path class="cls-4" d="M195.24,164.85c-8-5.65-13.15-18-13.15-31.39,0-13.87,5.41-26.35,13.77-31.81l1.2,1.84c-7.76,5.06-12.78,16.83-12.78,30,0,12.73,4.8,24.35,12.23,29.6Z"/><rect class="cls-4" x="165.52" y="131.8" width="60.68" height="2.19"/></g></g></svg>